<?xml version="1.0"?>
<svg xmlns="http://www.w3.org/2000/svg" xmlns:xlink="http://www.w3.org/1999/xlink" xmlns:svgjs="http://svgjs.com/svgjs" version="1.1" width="512" height="512" x="0" y="0" viewBox="0 0 512.003 512.003" style="enable-background:new 0 0 512 512" xml:space="preserve" class=""><g><g xmlns="http://www.w3.org/2000/svg" id="XMLID_2128_"><g id="XMLID_580_"><path id="XMLID_593_" d="m502.002 268h-276.576l22.012-38.126c2.762-4.783 1.123-10.899-3.66-13.66l-68.776-39.708c-2.296-1.325-5.024-1.684-7.588-.999-2.562.687-4.746 2.362-6.072 4.659l-52.09 90.224c-2.845-4.045-6.557-7.459-10.967-10.005-16.474-9.512-37.617-3.848-47.127 12.628-4.783 8.285-5.725 17.749-3.388 26.321-.054.014-.109.025-.163.04-8.901 2.385-16.341 8.093-20.949 16.074-4.608 7.98-5.832 17.278-3.447 26.179s8.094 16.341 16.075 20.949c4.412 2.547 9.227 4.044 14.154 4.485l-52.098 90.233c-1.326 2.297-1.686 5.026-.999 7.588s2.362 4.746 4.659 6.072l68.776 39.708c1.575.909 3.294 1.341 4.991 1.341 3.456 0 6.817-1.793 8.669-5.001l108.564-188.037v183.035c0 5.523 4.477 10 10 10h296c5.523 0 10-4.477 10-10v-224c0-5.523-4.477-10-10-10zm-328.34-69.174 51.456 29.708-58 100.459-51.456-29.708zm-30.544 171.736-51.456-29.708 14-24.249 51.456 29.708zm-74.641-87.55c2.683-4.647 7.567-7.247 12.582-7.247 2.459 0 4.948.625 7.226 1.939 6.924 3.998 9.304 12.882 5.308 19.807l-7.251 12.559-12.557-7.25c-6.925-3.998-9.306-12.884-5.308-19.808zm.614 56.935c-3.997 6.924-12.882 9.306-19.808 5.308-6.924-3.998-9.305-12.883-5.307-19.808 1.937-3.354 5.063-5.753 8.805-6.756 1.249-.334 2.517-.5 3.776-.5 2.512 0 4.992.659 7.227 1.949l12.557 7.25zm6.027 148.395-51.456-29.708 58-100.459 51.456 29.708zm140.884-200.342h104v204h-104zm276 204h-104v-54.252c0-5.523-4.477-10-10-10s-10 4.477-10 10v54.252h-28v-204h28v59.748c0 5.523 4.477 10 10 10s10-4.477 10-10v-59.748h104z" fill="#f0bc5e" data-original="#000000" style="" class=""/><path id="XMLID_600_" d="m354.002 235.942c5.523 0 10-4.477 10-10v-108.116c0-5.523-4.477-10-10-10s-10 4.477-10 10v108.116c0 5.523 4.477 10 10 10z" fill="#f0bc5e" data-original="#000000" style="" class=""/><path id="XMLID_601_" d="m414.696 235.942c5.523 0 10-4.477 10-10 0-38.17 14.864-74.055 41.854-101.044 3.905-3.905 3.905-10.237 0-14.143-3.905-3.905-10.237-3.905-14.142 0-30.767 30.768-47.712 71.675-47.712 115.187 0 5.523 4.477 10 10 10z" fill="#f0bc5e" data-original="#000000" style="" class=""/><path id="XMLID_602_" d="m283.307 225.942c0 5.523 4.477 10 10 10s10-4.477 10-10c0-43.512-16.944-84.42-47.712-115.187-3.905-3.905-10.237-3.905-14.142.001-3.905 3.905-3.905 10.237.001 14.142 26.989 26.989 41.853 62.874 41.853 101.044z" fill="#f0bc5e" data-original="#000000" style="" class=""/><path id="XMLID_603_" d="m400.668 33.333c5.523 0 10-4.477 10-10v-13.333c0-5.523-4.477-10-10-10s-10 4.477-10 10v13.333c0 5.524 4.477 10 10 10z" fill="#f0bc5e" data-original="#000000" style="" class=""/><path id="XMLID_604_" d="m400.668 100c5.523 0 10-4.477 10-10v-13.334c0-5.523-4.477-10-10-10s-10 4.477-10 10v13.334c0 5.523 4.477 10 10 10z" fill="#f0bc5e" data-original="#000000" style="" class=""/><path id="XMLID_605_" d="m427.335 60h13.333c5.523 0 10-4.477 10-10s-4.477-10-10-10h-13.333c-5.523 0-10 4.477-10 10s4.477 10 10 10z" fill="#f0bc5e" data-original="#000000" style="" class=""/><path id="XMLID_606_" d="m360.668 60h13.334c5.523 0 10-4.477 10-10s-4.477-10-10-10h-13.334c-5.523 0-10 4.477-10 10s4.477 10 10 10z" fill="#f0bc5e" data-original="#000000" style="" class=""/><path id="XMLID_679_" d="m195.744 97.046c17.645 0 32-14.355 32-32s-14.355-32-32-32-32 14.355-32 32 14.355 32 32 32zm0-44c6.617 0 12 5.383 12 12s-5.383 12-12 12-12-5.383-12-12 5.384-12 12-12z" fill="#f0bc5e" data-original="#000000" style="" class=""/><path id="XMLID_772_" d="m293.312 64.331c2.63 0 5.21-1.06 7.07-2.93 1.86-1.86 2.93-4.43 2.93-7.07 0-2.63-1.07-5.21-2.93-7.07s-4.44-2.93-7.07-2.93-5.211 1.07-7.08 2.93c-1.86 1.86-2.92 4.44-2.92 7.07s1.06 5.21 2.92 7.07c1.869 1.87 4.44 2.93 7.08 2.93z" fill="#f0bc5e" data-original="#000000" style="" class=""/><path id="XMLID_777_" d="m470.572 199.681c1.86 1.86 4.44 2.93 7.07 2.93s5.21-1.07 7.07-2.93c1.87-1.86 2.93-4.44 2.93-7.07s-1.06-5.21-2.93-7.07c-1.86-1.86-4.44-2.93-7.07-2.93s-5.21 1.07-7.07 2.93-2.93 4.44-2.93 7.07c-.001 2.63 1.07 5.21 2.93 7.07z" fill="#f0bc5e" data-original="#000000" style="" class=""/><path id="XMLID_779_" d="m502.002 86.671c2.63 0 5.21-1.07 7.07-2.93s2.93-4.44 2.93-7.07c0-2.64-1.07-5.21-2.93-7.08-1.86-1.86-4.44-2.92-7.07-2.92s-5.21 1.06-7.07 2.92c-1.86 1.87-2.93 4.44-2.93 7.08 0 2.63 1.07 5.21 2.93 7.07s4.439 2.93 7.07 2.93z" fill="#f0bc5e" data-original="#000000" style="" class=""/><path id="XMLID_1177_" d="m378.002 382.751c-2.63 0-5.21 1.06-7.07 2.93-1.86 1.86-2.93 4.43-2.93 7.07 0 2.63 1.07 5.21 2.93 7.07s4.44 2.93 7.07 2.93 5.21-1.07 7.07-2.93 2.93-4.44 2.93-7.07c0-2.64-1.07-5.21-2.93-7.07-1.86-1.87-4.44-2.93-7.07-2.93z" fill="#f0bc5e" data-original="#000000" style="" class=""/></g></g></g></svg>
