<?xml version="1.0"?>
<svg xmlns="http://www.w3.org/2000/svg" xmlns:xlink="http://www.w3.org/1999/xlink" xmlns:svgjs="http://svgjs.com/svgjs" version="1.1" width="512" height="512" x="0" y="0" viewBox="0 0 494.383 494.383" style="enable-background:new 0 0 512 512" xml:space="preserve" class=""><g>
<g xmlns="http://www.w3.org/2000/svg" id="XMLID_4_">
	<path id="XMLID_6_" d="M471.949,206.842L279.708,87.419c-8-4.969-16.585-7.222-24.959-7.222c-18.491,0-35.888,11.017-43.523,28.185   l82.789,51.427c30.423,18.905,48.59,51.566,48.59,87.378c0,35.813-18.167,68.482-48.59,87.378l-82.789,51.433   c7.635,17.162,25.032,28.186,43.523,28.186c8.374,0,16.959-2.254,24.959-7.231l192.241-119.415   C501.86,268.952,501.86,225.421,471.949,206.842z" fill="#ffffff" data-original="#000000" style="" class=""/>
	<path id="XMLID_5_" d="M264.8,206.842L72.56,87.419c-7.992-4.969-16.586-7.222-24.959-7.222C22.844,80.198,0,99.935,0,127.773   v238.835c0,27.838,22.844,47.577,47.601,47.577c8.373,0,16.958-2.254,24.959-7.231L264.8,287.539   C294.721,268.952,294.721,225.421,264.8,206.842z" fill="#ffffff" data-original="#000000" style="" class=""/>
</g>
<g xmlns="http://www.w3.org/2000/svg">
</g>
<g xmlns="http://www.w3.org/2000/svg">
</g>
<g xmlns="http://www.w3.org/2000/svg">
</g>
<g xmlns="http://www.w3.org/2000/svg">
</g>
<g xmlns="http://www.w3.org/2000/svg">
</g>
<g xmlns="http://www.w3.org/2000/svg">
</g>
<g xmlns="http://www.w3.org/2000/svg">
</g>
<g xmlns="http://www.w3.org/2000/svg">
</g>
<g xmlns="http://www.w3.org/2000/svg">
</g>
<g xmlns="http://www.w3.org/2000/svg">
</g>
<g xmlns="http://www.w3.org/2000/svg">
</g>
<g xmlns="http://www.w3.org/2000/svg">
</g>
<g xmlns="http://www.w3.org/2000/svg">
</g>
<g xmlns="http://www.w3.org/2000/svg">
</g>
<g xmlns="http://www.w3.org/2000/svg">
</g>
</g></svg>
