<svg height="512pt" viewBox="0 -85 512 512" width="512pt" xmlns="http://www.w3.org/2000/svg"><path d="m453.332031 0h-394.664062c-32.363281 0-58.667969 26.304688-58.667969 58.667969v224c0 32.363281 26.304688 58.664062 58.667969 58.664062h394.664062c32.363281 0 58.667969-26.300781 58.667969-58.664062v-224c0-32.363281-26.304688-58.667969-58.667969-58.667969zm0 0" fill="#4db6ac"/><path d="m261.3125 213.332031c-3.199219 0-6.464844-.957031-9.28125-2.984375l-49.363281-35.265625v22.25c0 8.832031-7.167969 16-16 16s-16-7.167969-16-16v-53.140625c0-.128906 0-.253906 0-.382812v-63.808594c0-8.832031 7.167969-16 16-16h42.664062c26.453125 0 48 21.546875 48 48 0 24.234375-18.046875 44.308594-41.363281 47.550781l34.664062 24.769531c7.210938 5.140626 8.855469 15.125 3.734376 22.3125-3.136719 4.375-8.0625 6.699219-13.054688 6.699219zm-58.644531-85.332031h26.664062c8.8125 0 16-7.1875 16-16s-7.1875-16-16-16h-26.664062zm0 0" fill="#fafafa"/><path d="m293.332031 277.332031c-8.832031 0-16-7.167969-16-16v-117.332031c0-8.832031 7.167969-16 16-16h42.667969c26.453125 0 48 21.546875 48 48s-21.546875 48-48 48h-26.667969v37.332031c0 8.832031-7.167969 16-16 16zm16-85.332031h26.667969c8.8125 0 16-7.1875 16-16s-7.1875-16-16-16h-26.667969zm0 0" fill="#fafafa"/><g fill="#009688"><path d="m133.332031 96h-53.332031c-8.832031 0-16-7.167969-16-16s7.167969-16 16-16h53.332031c8.832031 0 16 7.167969 16 16s-7.167969 16-16 16zm0 0"/><path d="m432 277.332031h-53.332031c-8.832031 0-16-7.167969-16-16s7.167969-16 16-16h53.332031c8.832031 0 16 7.167969 16 16s-7.167969 16-16 16zm0 0"/></g></svg>